<svg width="32" height="32" viewBox="0 0 32 32" fill="none" xmlns="http://www.w3.org/2000/svg">
<rect width="32" height="32" rx="7" fill="#FEF0F0"/>
<path d="M22.5851 12.2231C22.3616 11.7098 22.0395 11.2446 21.6366 10.8536C21.2335 10.4615 20.7581 10.1499 20.2365 9.93573C19.6955 9.71277 19.1153 9.59865 18.5296 9.59999C17.7078 9.59999 16.9061 9.82326 16.2093 10.245C16.0426 10.3459 15.8843 10.4567 15.7343 10.5774C15.5843 10.4567 15.4259 10.3459 15.2592 10.245C14.5625 9.82326 13.7607 9.59999 12.939 9.59999C12.3472 9.59999 11.7738 9.71245 11.2321 9.93573C10.7087 10.1507 10.237 10.46 9.83193 10.8536C9.42854 11.2442 9.10631 11.7094 8.88349 12.2231C8.65179 12.7573 8.53345 13.3246 8.53345 13.9084C8.53345 14.4592 8.64679 15.0331 8.87182 15.6169C9.06017 16.1048 9.33021 16.6109 9.67524 17.1219C10.222 17.9307 10.9737 18.7742 11.9072 19.6293C13.454 21.0467 14.9859 22.0258 15.0509 22.0655L15.4459 22.3169C15.6209 22.4277 15.846 22.4277 16.021 22.3169L16.416 22.0655C16.481 22.0241 18.0112 21.0467 19.5597 19.6293C20.4932 18.7742 21.2449 17.9307 21.7916 17.1219C22.1367 16.6109 22.4084 16.1048 22.5951 15.6169C22.8201 15.0331 22.9334 14.4592 22.9334 13.9084C22.9351 13.3246 22.8168 12.7573 22.5851 12.2231Z" fill="#FF8585"/>
</svg>
