<svg width="32" height="32" viewBox="0 0 32 32" fill="none" xmlns="http://www.w3.org/2000/svg">
<rect x="0.5" y="0.5" width="31" height="31" rx="6.5" fill="white" stroke="#F8F8F8"/>
<path d="M21.1491 11.356L21.1486 11.3554C20.8097 11.0258 20.4098 10.7636 19.9706 10.5833L19.9697 10.5829C19.514 10.3951 19.025 10.2989 18.5312 10.3L18.5296 10.3C17.8348 10.3 17.1585 10.4887 16.5718 10.8438L16.5718 10.8439C16.4314 10.9288 16.2986 11.0218 16.1732 11.1228L15.7343 11.476L15.2954 11.1228C15.1699 11.0218 15.0371 10.9288 14.8968 10.8439L14.8967 10.8438C14.3101 10.4887 13.6338 10.3 12.939 10.3C12.4374 10.3 11.9547 10.395 11.4988 10.5829L11.4981 10.5832C11.0571 10.7644 10.6607 11.0243 10.3198 11.3556L10.3188 11.3566L10.3188 11.3566C9.98124 11.6834 9.71186 12.0725 9.52569 12.5016L21.1491 11.356ZM21.1491 11.356C21.4866 11.6835 21.7562 12.0728 21.9431 12.5021C22.1366 12.9486 22.2348 13.4203 22.2334 13.9064V13.9084C22.2334 14.3625 22.14 14.8512 21.9419 15.3651L21.9413 15.3667M21.1491 11.356L21.9413 15.3667M12.38 19.1131L12.3801 19.1132C13.1292 19.7996 13.8774 20.3822 14.4476 20.7988C14.7322 21.0066 14.971 21.1721 15.1416 21.2873C15.2269 21.345 15.2949 21.3899 15.3429 21.4212C15.3937 21.4543 15.4172 21.469 15.4157 21.468L15.4267 21.4748L15.4267 21.4749L15.7334 21.6701L16.0402 21.4749L16.0403 21.4748C16.0915 21.4423 17.5824 20.4902 19.0869 19.1131H12.38ZM12.38 19.1131C11.4754 18.2845 10.7635 17.4818 10.2552 16.7299M12.38 19.1131L10.2552 16.7299M21.9413 15.3667C21.7773 15.7954 21.5329 16.2542 21.2115 16.7303M21.9413 15.3667L21.2115 16.7303M10.2552 16.7299C9.93479 16.2553 9.69136 15.796 9.52498 15.3651L10.2552 16.7299ZM21.2115 16.7303C20.7032 17.482 19.9914 18.2845 19.0871 19.1129L21.2115 16.7303ZM9.23345 13.9084C9.23345 13.4208 9.33196 12.9483 9.52567 12.5017L9.52485 15.3648C9.32684 14.851 9.23345 14.3624 9.23345 13.9084Z" stroke="#ECECEC" stroke-width="1.4"/>
</svg>
